<mxfile host="app.diagrams.net" modified="2022-01-25T22:12:58.048Z" agent="5.0 (Windows NT 10.0; Win64; x64) AppleWebKit/537.36 (KHTML, like Gecko) Chrome/96.0.4664.110 Safari/537.36 OPR/82.0.4227.50" etag="6hCL_0rnt60jxQjqhRR1" version="16.4.6" type="github">
  <diagram id="C5RBs43oDa-KdzZeNtuy" name="Page-1">
    <mxGraphModel dx="1381" dy="764" grid="1" gridSize="10" guides="1" tooltips="1" connect="1" arrows="1" fold="1" page="1" pageScale="1" pageWidth="827" pageHeight="1169" math="0" shadow="0">
      <root>
        <mxCell id="WIyWlLk6GJQsqaUBKTNV-0" />
        <mxCell id="WIyWlLk6GJQsqaUBKTNV-1" parent="WIyWlLk6GJQsqaUBKTNV-0" />
        <mxCell id="WIyWlLk6GJQsqaUBKTNV-2" value="" style="rounded=0;html=1;jettySize=auto;orthogonalLoop=1;fontSize=11;endArrow=block;endFill=0;endSize=8;strokeWidth=1;shadow=0;labelBackgroundColor=none;edgeStyle=orthogonalEdgeStyle;" parent="WIyWlLk6GJQsqaUBKTNV-1" source="WIyWlLk6GJQsqaUBKTNV-3" target="WIyWlLk6GJQsqaUBKTNV-6" edge="1">
          <mxGeometry relative="1" as="geometry" />
        </mxCell>
        <mxCell id="WIyWlLk6GJQsqaUBKTNV-3" value="Coffee Maker" style="rounded=1;whiteSpace=wrap;html=1;fontSize=12;glass=0;strokeWidth=1;shadow=0;" parent="WIyWlLk6GJQsqaUBKTNV-1" vertex="1">
          <mxGeometry x="65" y="200" width="120" height="40" as="geometry" />
        </mxCell>
        <mxCell id="WIyWlLk6GJQsqaUBKTNV-4" value="Yes" style="rounded=0;html=1;jettySize=auto;orthogonalLoop=1;fontSize=11;endArrow=block;endFill=0;endSize=8;strokeWidth=1;shadow=0;labelBackgroundColor=none;edgeStyle=orthogonalEdgeStyle;" parent="WIyWlLk6GJQsqaUBKTNV-1" source="WIyWlLk6GJQsqaUBKTNV-6" edge="1">
          <mxGeometry y="20" relative="1" as="geometry">
            <mxPoint as="offset" />
            <mxPoint x="125" y="420" as="targetPoint" />
          </mxGeometry>
        </mxCell>
        <mxCell id="WIyWlLk6GJQsqaUBKTNV-5" value="No" style="edgeStyle=orthogonalEdgeStyle;rounded=0;html=1;jettySize=auto;orthogonalLoop=1;fontSize=11;endArrow=block;endFill=0;endSize=8;strokeWidth=1;shadow=0;labelBackgroundColor=none;entryX=0;entryY=0.5;entryDx=0;entryDy=0;" parent="WIyWlLk6GJQsqaUBKTNV-1" source="WIyWlLk6GJQsqaUBKTNV-6" target="JuvoEm45mdGnpzphk-sR-4" edge="1">
          <mxGeometry y="10" relative="1" as="geometry">
            <mxPoint as="offset" />
            <mxPoint x="230" y="335" as="targetPoint" />
          </mxGeometry>
        </mxCell>
        <mxCell id="WIyWlLk6GJQsqaUBKTNV-6" value="Maker require more water?" style="rhombus;whiteSpace=wrap;html=1;shadow=0;fontFamily=Helvetica;fontSize=12;align=center;strokeWidth=1;spacing=6;spacingTop=-4;" parent="WIyWlLk6GJQsqaUBKTNV-1" vertex="1">
          <mxGeometry x="70" y="290" width="110" height="90" as="geometry" />
        </mxCell>
        <mxCell id="JuvoEm45mdGnpzphk-sR-1" value="Add water to maker" style="rounded=0;whiteSpace=wrap;html=1;" vertex="1" parent="WIyWlLk6GJQsqaUBKTNV-1">
          <mxGeometry x="65" y="420" width="120" height="60" as="geometry" />
        </mxCell>
        <mxCell id="JuvoEm45mdGnpzphk-sR-2" value="" style="curved=1;endArrow=classic;html=1;rounded=0;entryX=0;entryY=0.5;entryDx=0;entryDy=0;" edge="1" parent="WIyWlLk6GJQsqaUBKTNV-1" target="WIyWlLk6GJQsqaUBKTNV-6">
          <mxGeometry width="50" height="50" relative="1" as="geometry">
            <mxPoint x="60" y="440" as="sourcePoint" />
            <mxPoint x="50" y="330" as="targetPoint" />
            <Array as="points">
              <mxPoint x="20" y="440" />
              <mxPoint x="20" y="410" />
              <mxPoint x="20" y="380" />
              <mxPoint x="20" y="335" />
            </Array>
          </mxGeometry>
        </mxCell>
        <mxCell id="JuvoEm45mdGnpzphk-sR-4" value="Maker require more beans?" style="rhombus;whiteSpace=wrap;html=1;shadow=0;fontFamily=Helvetica;fontSize=12;align=center;strokeWidth=1;spacing=6;spacingTop=-4;" vertex="1" parent="WIyWlLk6GJQsqaUBKTNV-1">
          <mxGeometry x="220" y="290" width="110" height="90" as="geometry" />
        </mxCell>
        <mxCell id="JuvoEm45mdGnpzphk-sR-5" value="Add beans to maker" style="rounded=0;whiteSpace=wrap;html=1;" vertex="1" parent="WIyWlLk6GJQsqaUBKTNV-1">
          <mxGeometry x="220" y="420" width="120" height="60" as="geometry" />
        </mxCell>
        <mxCell id="JuvoEm45mdGnpzphk-sR-9" value="Yes" style="rounded=0;html=1;jettySize=auto;orthogonalLoop=1;fontSize=11;endArrow=block;endFill=0;endSize=8;strokeWidth=1;shadow=0;labelBackgroundColor=none;edgeStyle=orthogonalEdgeStyle;exitX=0.5;exitY=1;exitDx=0;exitDy=0;" edge="1" parent="WIyWlLk6GJQsqaUBKTNV-1" source="JuvoEm45mdGnpzphk-sR-4">
          <mxGeometry y="20" relative="1" as="geometry">
            <mxPoint as="offset" />
            <mxPoint x="330" y="380" as="sourcePoint" />
            <mxPoint x="275" y="420" as="targetPoint" />
            <Array as="points">
              <mxPoint x="275" y="420" />
            </Array>
          </mxGeometry>
        </mxCell>
        <mxCell id="JuvoEm45mdGnpzphk-sR-10" value="" style="curved=1;endArrow=classic;html=1;rounded=0;entryX=1;entryY=0.5;entryDx=0;entryDy=0;exitX=1;exitY=0.5;exitDx=0;exitDy=0;" edge="1" parent="WIyWlLk6GJQsqaUBKTNV-1" source="JuvoEm45mdGnpzphk-sR-5" target="JuvoEm45mdGnpzphk-sR-4">
          <mxGeometry width="50" height="50" relative="1" as="geometry">
            <mxPoint x="400" y="445" as="sourcePoint" />
            <mxPoint x="410" y="340" as="targetPoint" />
            <Array as="points">
              <mxPoint x="360" y="450" />
              <mxPoint x="360" y="415" />
              <mxPoint x="360" y="390" />
              <mxPoint x="360" y="360" />
              <mxPoint x="360" y="335" />
            </Array>
          </mxGeometry>
        </mxCell>
        <mxCell id="JuvoEm45mdGnpzphk-sR-12" value="No" style="edgeStyle=orthogonalEdgeStyle;rounded=0;html=1;jettySize=auto;orthogonalLoop=1;fontSize=11;endArrow=block;endFill=0;endSize=8;strokeWidth=1;shadow=0;labelBackgroundColor=none;exitX=0.5;exitY=0;exitDx=0;exitDy=0;" edge="1" parent="WIyWlLk6GJQsqaUBKTNV-1" source="JuvoEm45mdGnpzphk-sR-4" target="JuvoEm45mdGnpzphk-sR-13">
          <mxGeometry y="10" relative="1" as="geometry">
            <mxPoint as="offset" />
            <mxPoint x="230" y="345" as="sourcePoint" />
            <mxPoint x="370" y="160" as="targetPoint" />
          </mxGeometry>
        </mxCell>
        <mxCell id="JuvoEm45mdGnpzphk-sR-13" value="Button Press" style="rhombus;whiteSpace=wrap;html=1;" vertex="1" parent="WIyWlLk6GJQsqaUBKTNV-1">
          <mxGeometry x="495" y="230" width="80" height="80" as="geometry" />
        </mxCell>
        <mxCell id="JuvoEm45mdGnpzphk-sR-21" value="" style="edgeStyle=orthogonalEdgeStyle;rounded=0;orthogonalLoop=1;jettySize=auto;html=1;" edge="1" parent="WIyWlLk6GJQsqaUBKTNV-1" source="JuvoEm45mdGnpzphk-sR-14" target="JuvoEm45mdGnpzphk-sR-18">
          <mxGeometry relative="1" as="geometry" />
        </mxCell>
        <mxCell id="JuvoEm45mdGnpzphk-sR-14" value="Begin boiling water" style="shape=process;whiteSpace=wrap;html=1;backgroundOutline=1;" vertex="1" parent="WIyWlLk6GJQsqaUBKTNV-1">
          <mxGeometry x="515" y="360" width="120" height="60" as="geometry" />
        </mxCell>
        <mxCell id="JuvoEm45mdGnpzphk-sR-16" value="On" style="endArrow=classic;html=1;rounded=0;exitX=0.5;exitY=1;exitDx=0;exitDy=0;entryX=0.5;entryY=0;entryDx=0;entryDy=0;" edge="1" parent="WIyWlLk6GJQsqaUBKTNV-1" source="JuvoEm45mdGnpzphk-sR-13" target="JuvoEm45mdGnpzphk-sR-14">
          <mxGeometry relative="1" as="geometry">
            <mxPoint x="605" y="310" as="sourcePoint" />
            <mxPoint x="705" y="310" as="targetPoint" />
          </mxGeometry>
        </mxCell>
        <mxCell id="JuvoEm45mdGnpzphk-sR-17" value="On" style="edgeLabel;resizable=0;html=1;align=center;verticalAlign=middle;" connectable="0" vertex="1" parent="JuvoEm45mdGnpzphk-sR-16">
          <mxGeometry relative="1" as="geometry" />
        </mxCell>
        <mxCell id="JuvoEm45mdGnpzphk-sR-71" value="" style="edgeStyle=orthogonalEdgeStyle;rounded=0;orthogonalLoop=1;jettySize=auto;html=1;fontSize=12;" edge="1" parent="WIyWlLk6GJQsqaUBKTNV-1" source="JuvoEm45mdGnpzphk-sR-18" target="JuvoEm45mdGnpzphk-sR-59">
          <mxGeometry relative="1" as="geometry" />
        </mxCell>
        <mxCell id="JuvoEm45mdGnpzphk-sR-18" value="Mix boiled water with coffee" style="shape=process;whiteSpace=wrap;html=1;backgroundOutline=1;fontStyle=0" vertex="1" parent="WIyWlLk6GJQsqaUBKTNV-1">
          <mxGeometry x="515" y="440" width="120" height="60" as="geometry" />
        </mxCell>
        <mxCell id="JuvoEm45mdGnpzphk-sR-23" value="" style="edgeStyle=orthogonalEdgeStyle;rounded=0;orthogonalLoop=1;jettySize=auto;html=1;" edge="1" parent="WIyWlLk6GJQsqaUBKTNV-1" source="JuvoEm45mdGnpzphk-sR-19" target="JuvoEm45mdGnpzphk-sR-20">
          <mxGeometry relative="1" as="geometry" />
        </mxCell>
        <mxCell id="JuvoEm45mdGnpzphk-sR-19" value="Filter coffee mix" style="shape=process;whiteSpace=wrap;html=1;backgroundOutline=1;fontStyle=0" vertex="1" parent="WIyWlLk6GJQsqaUBKTNV-1">
          <mxGeometry x="515" y="640" width="120" height="60" as="geometry" />
        </mxCell>
        <mxCell id="JuvoEm45mdGnpzphk-sR-49" value="" style="edgeStyle=orthogonalEdgeStyle;rounded=0;orthogonalLoop=1;jettySize=auto;html=1;fontSize=12;" edge="1" parent="WIyWlLk6GJQsqaUBKTNV-1" source="JuvoEm45mdGnpzphk-sR-20" target="JuvoEm45mdGnpzphk-sR-50">
          <mxGeometry relative="1" as="geometry" />
        </mxCell>
        <mxCell id="JuvoEm45mdGnpzphk-sR-20" value="Dispense into cup" style="shape=process;whiteSpace=wrap;html=1;backgroundOutline=1;fontStyle=0" vertex="1" parent="WIyWlLk6GJQsqaUBKTNV-1">
          <mxGeometry x="515" y="720" width="120" height="60" as="geometry" />
        </mxCell>
        <mxCell id="JuvoEm45mdGnpzphk-sR-24" value="Off" style="endArrow=classic;html=1;rounded=0;exitX=0.5;exitY=0;exitDx=0;exitDy=0;entryX=0.5;entryY=1;entryDx=0;entryDy=0;" edge="1" parent="WIyWlLk6GJQsqaUBKTNV-1" source="JuvoEm45mdGnpzphk-sR-13" target="JuvoEm45mdGnpzphk-sR-26">
          <mxGeometry relative="1" as="geometry">
            <mxPoint x="565" y="320" as="sourcePoint" />
            <mxPoint x="555" y="210" as="targetPoint" />
          </mxGeometry>
        </mxCell>
        <mxCell id="JuvoEm45mdGnpzphk-sR-25" value="Off" style="edgeLabel;resizable=0;html=1;align=center;verticalAlign=middle;" connectable="0" vertex="1" parent="JuvoEm45mdGnpzphk-sR-24">
          <mxGeometry relative="1" as="geometry" />
        </mxCell>
        <mxCell id="JuvoEm45mdGnpzphk-sR-30" value="" style="edgeStyle=orthogonalEdgeStyle;rounded=0;orthogonalLoop=1;jettySize=auto;html=1;" edge="1" parent="WIyWlLk6GJQsqaUBKTNV-1" source="JuvoEm45mdGnpzphk-sR-26" target="JuvoEm45mdGnpzphk-sR-27">
          <mxGeometry relative="1" as="geometry" />
        </mxCell>
        <mxCell id="JuvoEm45mdGnpzphk-sR-26" value="Machine shut down" style="shape=process;whiteSpace=wrap;html=1;backgroundOutline=1;" vertex="1" parent="WIyWlLk6GJQsqaUBKTNV-1">
          <mxGeometry x="475" y="130" width="120" height="60" as="geometry" />
        </mxCell>
        <mxCell id="JuvoEm45mdGnpzphk-sR-27" value="Display current time" style="shape=process;whiteSpace=wrap;html=1;backgroundOutline=1;" vertex="1" parent="WIyWlLk6GJQsqaUBKTNV-1">
          <mxGeometry x="322.5" y="130" width="120" height="60" as="geometry" />
        </mxCell>
        <mxCell id="JuvoEm45mdGnpzphk-sR-31" value="" style="endArrow=classic;html=1;rounded=0;exitX=1;exitY=0.5;exitDx=0;exitDy=0;entryX=0;entryY=0.5;entryDx=0;entryDy=0;" edge="1" parent="WIyWlLk6GJQsqaUBKTNV-1" source="JuvoEm45mdGnpzphk-sR-13">
          <mxGeometry relative="1" as="geometry">
            <mxPoint x="965" y="350" as="sourcePoint" />
            <mxPoint x="665" y="270" as="targetPoint" />
          </mxGeometry>
        </mxCell>
        <mxCell id="JuvoEm45mdGnpzphk-sR-32" value="Program" style="edgeLabel;resizable=0;html=1;align=center;verticalAlign=middle;" connectable="0" vertex="1" parent="JuvoEm45mdGnpzphk-sR-31">
          <mxGeometry relative="1" as="geometry" />
        </mxCell>
        <mxCell id="JuvoEm45mdGnpzphk-sR-33" value="" style="endArrow=classic;html=1;rounded=0;exitX=0;exitY=1;exitDx=0;exitDy=0;entryX=0.5;entryY=0;entryDx=0;entryDy=0;" edge="1" parent="WIyWlLk6GJQsqaUBKTNV-1" source="JuvoEm45mdGnpzphk-sR-13" target="JuvoEm45mdGnpzphk-sR-35">
          <mxGeometry relative="1" as="geometry">
            <mxPoint x="325" y="370" as="sourcePoint" />
            <mxPoint x="425" y="370" as="targetPoint" />
          </mxGeometry>
        </mxCell>
        <mxCell id="JuvoEm45mdGnpzphk-sR-34" value="On (twice)" style="edgeLabel;resizable=0;html=1;align=center;verticalAlign=middle;" connectable="0" vertex="1" parent="JuvoEm45mdGnpzphk-sR-33">
          <mxGeometry relative="1" as="geometry" />
        </mxCell>
        <mxCell id="JuvoEm45mdGnpzphk-sR-39" value="" style="edgeStyle=orthogonalEdgeStyle;rounded=0;orthogonalLoop=1;jettySize=auto;html=1;" edge="1" parent="WIyWlLk6GJQsqaUBKTNV-1" source="JuvoEm45mdGnpzphk-sR-35" target="JuvoEm45mdGnpzphk-sR-38">
          <mxGeometry relative="1" as="geometry" />
        </mxCell>
        <mxCell id="JuvoEm45mdGnpzphk-sR-35" value="Set time to brew coffee" style="shape=process;whiteSpace=wrap;html=1;backgroundOutline=1;" vertex="1" parent="WIyWlLk6GJQsqaUBKTNV-1">
          <mxGeometry x="375" y="360" width="120" height="60" as="geometry" />
        </mxCell>
        <mxCell id="JuvoEm45mdGnpzphk-sR-36" value="User Input hour&amp;nbsp;" style="shape=parallelogram;perimeter=parallelogramPerimeter;whiteSpace=wrap;html=1;fixedSize=1;" vertex="1" parent="WIyWlLk6GJQsqaUBKTNV-1">
          <mxGeometry x="365" y="440" width="115" height="50" as="geometry" />
        </mxCell>
        <mxCell id="JuvoEm45mdGnpzphk-sR-41" value="" style="edgeStyle=orthogonalEdgeStyle;rounded=0;orthogonalLoop=1;jettySize=auto;html=1;" edge="1" parent="WIyWlLk6GJQsqaUBKTNV-1" source="JuvoEm45mdGnpzphk-sR-38" target="JuvoEm45mdGnpzphk-sR-40">
          <mxGeometry relative="1" as="geometry" />
        </mxCell>
        <mxCell id="JuvoEm45mdGnpzphk-sR-38" value="User Input minute" style="shape=parallelogram;perimeter=parallelogramPerimeter;whiteSpace=wrap;html=1;fixedSize=1;" vertex="1" parent="WIyWlLk6GJQsqaUBKTNV-1">
          <mxGeometry x="355" y="520" width="115" height="50" as="geometry" />
        </mxCell>
        <mxCell id="JuvoEm45mdGnpzphk-sR-40" value="Store time" style="shape=cylinder3;whiteSpace=wrap;html=1;boundedLbl=1;backgroundOutline=1;size=15;" vertex="1" parent="WIyWlLk6GJQsqaUBKTNV-1">
          <mxGeometry x="382.5" y="590" width="60" height="80" as="geometry" />
        </mxCell>
        <mxCell id="JuvoEm45mdGnpzphk-sR-43" value="" style="endArrow=classic;html=1;rounded=0;exitX=1;exitY=0.5;exitDx=0;exitDy=0;entryX=0.5;entryY=0;entryDx=0;entryDy=0;" edge="1" parent="WIyWlLk6GJQsqaUBKTNV-1" source="JuvoEm45mdGnpzphk-sR-45" target="JuvoEm45mdGnpzphk-sR-45">
          <mxGeometry relative="1" as="geometry">
            <mxPoint x="730" y="570" as="sourcePoint" />
            <mxPoint x="800" y="510" as="targetPoint" />
            <Array as="points">
              <mxPoint x="800" y="270" />
              <mxPoint x="800" y="220" />
            </Array>
          </mxGeometry>
        </mxCell>
        <mxCell id="JuvoEm45mdGnpzphk-sR-44" value="No" style="edgeLabel;resizable=0;html=1;align=center;verticalAlign=middle;" connectable="0" vertex="1" parent="JuvoEm45mdGnpzphk-sR-43">
          <mxGeometry relative="1" as="geometry" />
        </mxCell>
        <mxCell id="JuvoEm45mdGnpzphk-sR-45" value="&lt;div&gt;&lt;span&gt;Stored time equals current time&lt;/span&gt;&lt;/div&gt;" style="rhombus;whiteSpace=wrap;html=1;align=center;" vertex="1" parent="WIyWlLk6GJQsqaUBKTNV-1">
          <mxGeometry x="660" y="220" width="100" height="100" as="geometry" />
        </mxCell>
        <mxCell id="JuvoEm45mdGnpzphk-sR-46" value="" style="endArrow=classic;html=1;rounded=0;fontSize=12;exitX=0.5;exitY=1;exitDx=0;exitDy=0;entryX=1;entryY=0.5;entryDx=0;entryDy=0;" edge="1" parent="WIyWlLk6GJQsqaUBKTNV-1" source="JuvoEm45mdGnpzphk-sR-45" target="JuvoEm45mdGnpzphk-sR-14">
          <mxGeometry relative="1" as="geometry">
            <mxPoint x="720" y="620" as="sourcePoint" />
            <mxPoint x="800" y="510" as="targetPoint" />
          </mxGeometry>
        </mxCell>
        <mxCell id="JuvoEm45mdGnpzphk-sR-47" value="Yes" style="edgeLabel;resizable=0;html=1;align=center;verticalAlign=middle;fontSize=12;" connectable="0" vertex="1" parent="JuvoEm45mdGnpzphk-sR-46">
          <mxGeometry relative="1" as="geometry" />
        </mxCell>
        <mxCell id="JuvoEm45mdGnpzphk-sR-48" value="Keep coffee warm" style="shape=process;whiteSpace=wrap;html=1;backgroundOutline=1;fontSize=12;" vertex="1" parent="WIyWlLk6GJQsqaUBKTNV-1">
          <mxGeometry x="290" y="835" width="120" height="60" as="geometry" />
        </mxCell>
        <mxCell id="JuvoEm45mdGnpzphk-sR-50" value="Button State" style="rhombus;whiteSpace=wrap;html=1;fontSize=12;" vertex="1" parent="WIyWlLk6GJQsqaUBKTNV-1">
          <mxGeometry x="522.5" y="810" width="105" height="110" as="geometry" />
        </mxCell>
        <mxCell id="JuvoEm45mdGnpzphk-sR-52" value="Coffee maker off" style="rounded=1;whiteSpace=wrap;html=1;fontSize=12;" vertex="1" parent="WIyWlLk6GJQsqaUBKTNV-1">
          <mxGeometry x="515" y="960" width="120" height="60" as="geometry" />
        </mxCell>
        <mxCell id="JuvoEm45mdGnpzphk-sR-54" value="" style="endArrow=classic;html=1;rounded=0;fontSize=12;entryX=1;entryY=0.5;entryDx=0;entryDy=0;exitX=0;exitY=0.5;exitDx=0;exitDy=0;" edge="1" parent="WIyWlLk6GJQsqaUBKTNV-1" source="JuvoEm45mdGnpzphk-sR-50" target="JuvoEm45mdGnpzphk-sR-48">
          <mxGeometry relative="1" as="geometry">
            <mxPoint x="570" y="580" as="sourcePoint" />
            <mxPoint x="670" y="580" as="targetPoint" />
          </mxGeometry>
        </mxCell>
        <mxCell id="JuvoEm45mdGnpzphk-sR-55" value="ON or Program" style="edgeLabel;resizable=0;html=1;align=center;verticalAlign=middle;fontSize=12;" connectable="0" vertex="1" parent="JuvoEm45mdGnpzphk-sR-54">
          <mxGeometry relative="1" as="geometry" />
        </mxCell>
        <mxCell id="JuvoEm45mdGnpzphk-sR-56" value="" style="endArrow=classic;html=1;rounded=0;fontSize=12;exitX=0.5;exitY=1;exitDx=0;exitDy=0;entryX=0.5;entryY=0;entryDx=0;entryDy=0;" edge="1" parent="WIyWlLk6GJQsqaUBKTNV-1" source="JuvoEm45mdGnpzphk-sR-50" target="JuvoEm45mdGnpzphk-sR-52">
          <mxGeometry relative="1" as="geometry">
            <mxPoint x="570" y="690" as="sourcePoint" />
            <mxPoint x="670" y="690" as="targetPoint" />
          </mxGeometry>
        </mxCell>
        <mxCell id="JuvoEm45mdGnpzphk-sR-57" value="Off" style="edgeLabel;resizable=0;html=1;align=center;verticalAlign=middle;fontSize=12;" connectable="0" vertex="1" parent="JuvoEm45mdGnpzphk-sR-56">
          <mxGeometry relative="1" as="geometry" />
        </mxCell>
        <mxCell id="JuvoEm45mdGnpzphk-sR-58" value="" style="curved=1;endArrow=classic;html=1;rounded=0;fontSize=12;exitX=0.5;exitY=0;exitDx=0;exitDy=0;entryX=0.3;entryY=0.182;entryDx=0;entryDy=0;entryPerimeter=0;" edge="1" parent="WIyWlLk6GJQsqaUBKTNV-1" source="JuvoEm45mdGnpzphk-sR-48" target="JuvoEm45mdGnpzphk-sR-50">
          <mxGeometry width="50" height="50" relative="1" as="geometry">
            <mxPoint x="590" y="660" as="sourcePoint" />
            <mxPoint x="640" y="610" as="targetPoint" />
            <Array as="points">
              <mxPoint x="400" y="800" />
              <mxPoint x="520" y="790" />
            </Array>
          </mxGeometry>
        </mxCell>
        <mxCell id="JuvoEm45mdGnpzphk-sR-59" value="Enough Water" style="rhombus;whiteSpace=wrap;html=1;fontSize=12;" vertex="1" parent="WIyWlLk6GJQsqaUBKTNV-1">
          <mxGeometry x="535" y="520" width="80" height="80" as="geometry" />
        </mxCell>
        <mxCell id="JuvoEm45mdGnpzphk-sR-72" value="" style="endArrow=classic;html=1;rounded=0;fontSize=12;exitX=0.5;exitY=1;exitDx=0;exitDy=0;entryX=0.5;entryY=0;entryDx=0;entryDy=0;" edge="1" parent="WIyWlLk6GJQsqaUBKTNV-1" source="JuvoEm45mdGnpzphk-sR-59" target="JuvoEm45mdGnpzphk-sR-19">
          <mxGeometry relative="1" as="geometry">
            <mxPoint x="580" y="630" as="sourcePoint" />
            <mxPoint x="670" y="570" as="targetPoint" />
          </mxGeometry>
        </mxCell>
        <mxCell id="JuvoEm45mdGnpzphk-sR-73" value="Yes" style="edgeLabel;resizable=0;html=1;align=center;verticalAlign=middle;fontSize=12;" connectable="0" vertex="1" parent="JuvoEm45mdGnpzphk-sR-72">
          <mxGeometry relative="1" as="geometry" />
        </mxCell>
        <mxCell id="JuvoEm45mdGnpzphk-sR-74" value="" style="endArrow=classic;html=1;rounded=0;fontSize=12;exitX=1;exitY=0.5;exitDx=0;exitDy=0;entryX=1;entryY=0.5;entryDx=0;entryDy=0;" edge="1" parent="WIyWlLk6GJQsqaUBKTNV-1" source="JuvoEm45mdGnpzphk-sR-59" target="JuvoEm45mdGnpzphk-sR-50">
          <mxGeometry relative="1" as="geometry">
            <mxPoint x="570" y="570" as="sourcePoint" />
            <mxPoint x="670" y="570" as="targetPoint" />
            <Array as="points">
              <mxPoint x="730" y="560" />
              <mxPoint x="730" y="865" />
            </Array>
          </mxGeometry>
        </mxCell>
        <mxCell id="JuvoEm45mdGnpzphk-sR-75" value="No" style="edgeLabel;resizable=0;html=1;align=center;verticalAlign=middle;fontSize=12;" connectable="0" vertex="1" parent="JuvoEm45mdGnpzphk-sR-74">
          <mxGeometry relative="1" as="geometry" />
        </mxCell>
      </root>
    </mxGraphModel>
  </diagram>
</mxfile>
